inDegrees=yes
name=ik_Shooting_orientations_zug
DataType=double
version=3
OpenSimVersion=4.3-2021-08-27-4bc7ad9
endheader
time	pelvis_tilt	pelvis_list	pelvis_rotation	pelvis_tx	pelvis_ty	pelvis_tz	hip_flexion_r	hip_adduction_r	hip_rotation_r	knee_angle_r	knee_angle_r_beta	ankle_angle_r	subtalar_angle_r	mtp_angle_r	hip_flexion_l	hip_adduction_l	hip_rotation_l	knee_angle_l	knee_angle_l_beta	ankle_angle_l	subtalar_angle_l	mtp_angle_l	lumbar_extension	lumbar_bending	lumbar_rotation	arm_flex_r	arm_add_r	arm_rot_r	elbow_flex_r	pro_sup_r	wrist_flex_r	wrist_dev_r	arm_flex_l	arm_add_l	arm_rot_l	elbow_flex_l	pro_sup_l	wrist_flex_l	wrist_dev_l
7.5	-0.8024174350136852	-1.798012139318264	148.0778694288158	0	0.9399999999999999	0	40.2890672463541	-9.973409015092843	0	53.30495129954404	0.9303469077922737	-4.996379705700314	0	0	40.2890672463541	-9.973409015092843	0	53.30495129954404	0.9303469077922737	-4.996379705700314	0	0	2.182097588631931	-0.3335478163912302	-3.320731054308969	69.69896073765875	6.900645467240504	-24.08281150872018	0.001781781338339679	44.777079770878	0	0	0	-10.47901409139464	0	68.89281753409908	44.777079770878	0	0
7.51	-0.8084881190699492	-1.80427483216021	148.1003779813874	0	0.9399999999999999	0	40.33458764430132	-9.974194647001886	0	53.35968849396962	0.9313022520583043	-4.996513717244127	0	0	40.33458764430132	-9.974194647001886	0	53.35968849396962	0.9313022520583043	-4.996513717244127	0	0	2.176201536588838	-0.3713843917300697	-3.362816736954769	68.66545739141007	7.998761774883886	-25.32209653815837	0.001786501157812285	44.78245416923754	0	0	0	-10.50240693597834	0	68.95196277107367	44.78245416923754	0	0
7.52	-0.8163964847317715	-1.816711069286058	148.1040580329787	0	0.9399999999999999	0	40.38558159346746	-9.975096065834048	0	53.41845064974411	0.932327845152139	-4.996667317708661	0	0	40.38558159346746	-9.975096065834048	0	53.41845064974411	0.932327845152139	-4.996667317708661	0	0	2.174740783887097	-0.3666156494123423	-3.375155517912196	68.06545899743897	8.372966301398373	-26.0599691661142	0.001779029629813535	44.78861322007172	0	0	0	-10.52796091532297	0	69.01822897115613	44.78861322007172	0	0
7.53	-0.8220544938412806	-1.818440722116616	148.1000080581382	0	0.9399999999999999	0	40.38744799438354	-9.975131199356232	0	53.4205536556225	0.9323645495289056	-4.996673452460633	0	0	40.38744799438354	-9.975131199356232	0	53.4205536556225	0.9323645495289056	-4.996673452460633	0	0	2.175712600564057	-0.3844061300940253	-3.369265771890845	67.60350848480064	9.138900096338549	-27.01667397599208	0.001768186491748874	44.78884904417219	0	0	0	-10.52888392547297	0	69.02065471835053	44.78884904417219	0	0
7.54	-0.8277018266564042	-1.816146876374735	148.0932438717249	0	0.9399999999999999	0	40.38906938827738	-9.97516166910018	0	53.42238184339972	0.9323964574249628	-4.996678769943537	0	0	40.38906938827738	-9.97516166910018	0	53.42238184339972	0.9323964574249628	-4.996678769943537	0	0	2.174938462317649	-0.372338685051788	-3.345676307042591	67.23427535931729	10.02917877503327	-27.67215704044272	0.001761888552334798	44.78905364771437	0	0	0	-10.52968627791676	0	69.02276201849597	44.78905364771437	0	0
7.55	-0.8349680124689906	-1.815307099907747	148.0774722425062	0	0.9399999999999999	0	40.39041496161926	-9.975186875808946	0	53.4239021361068	0.9324229915382956	-4.996683165563082	0	0	40.39041496161926	-9.975186875808946	0	53.4239021361068	0.9324229915382956	-4.996683165563082	0	0	2.177655966362343	-0.3809528717535246	-3.332853290318555	67.05766087716043	10.79764576236201	-27.65972698203997	0.00174575124571764	44.78922301778621	0	0	0	-10.53035320624721	0	69.02451081595065	44.78922301778621	0	0
7.56	-0.8365591514727326	-1.829243123836107	148.0781384372419	0	0.9399999999999999	0	40.39207039991988	-9.975217931410276	0	53.42576922836046	0.9324555784455603	-4.99668858150233	0	0	40.39207039991988	-9.975217931410276	0	53.42576922836046	0.9324555784455603	-4.99668858150233	0	0	2.176580302486514	-0.3942901448838286	-3.334407537761855	67.52725478628457	11.21173472930559	-28.48928352740414	0.001738531489312988	44.78943165702116	0	0	0	-10.53117275384419	0	69.02666235076013	44.78943165702116	0	0
7.57	-0.8457803540408843	-1.831991736595852	148.078453136701	0	0.9399999999999999	0	40.39378857560814	-9.975250140689315	0	53.42770692603129	0.9324893976498245	-4.99669419664442	0	0	40.39378857560814	-9.975250140689315	0	53.42770692603129	0.9324893976498245	-4.99669419664442	0	0	2.184305487531062	-0.4020196992390676	-3.310580745976662	67.66965911519868	10.40414990675892	-27.98170875201955	0.00174274826018919	44.78964809774457	0	0	0	-10.53202342217407	0	69.02889541935131	44.78964809774457	0	0
7.58	-0.8499105499509233	-1.84694151315115	148.0717255645291	0	0.9399999999999999	0	40.39470782275576	-9.97526731559636	0	53.428745920884	0.9325075315309157	-4.996697188423686	0	0	40.39470782275576	-9.97526731559636	0	53.428745920884	0.9325075315309157	-4.996697188423686	0	0	2.177436322803783	-0.4378659327013875	-3.306024538163366	67.43438696181866	10.26527436756111	-27.74329049881167	0.001748182914391173	44.7897635868081	0	0	0	-10.53247932277187	0	69.03009012450828	44.7897635868081	0	0
7.59	-0.8561277363564522	-1.826897103054811	148.0740687228484	0	0.9399999999999999	0	40.43842296460861	-9.976025120102559	0	53.47883571177474	0.9333817633035943	-4.996825015515626	0	0	40.43842296460861	-9.976025120102559	0	53.47883571177474	0.9333817633035943	-4.996825015515626	0	0	2.170392747444149	-0.4052974388923162	-3.296836650059134	66.84838618260827	10.3559458161659	-28.19272171365133	0.00176472839054539	44.79497707313509	0	0	0	-10.55435552681699	0	69.08689569074916	44.79497707313509	0	0
